<?xml version="1.0" encoding="utf-8"?>
<!-- Generator: Adobe Illustrator 26.0.3, SVG Export Plug-In . SVG Version: 6.00 Build 0)  -->
<svg version="1.1" id="Ebene_1" xmlns="http://www.w3.org/2000/svg" xmlns:xlink="http://www.w3.org/1999/xlink" x="0px" y="0px"
	 viewBox="0 0 20 20" style="enable-background:new 0 0 20 20;" xml:space="preserve">
<style type="text/css">
	.st0{fill:#B4C217;}
</style>
<g id="Icon_ionic-ios-checkmark-circle-outline" transform="translate(-3.375 -3.375)">
	<path id="Pfad_17302" class="st0" d="M17,10.3l-0.7-0.9c0,0-0.1-0.1-0.1-0.1l0,0c0,0-0.1,0-0.1,0.1l-4.7,6l-1.7-2.2
		c0-0.1-0.1-0.1-0.2,0c0,0,0,0,0,0l-0.7,0.9c-0.1,0.1-0.1,0.2,0,0.3l2.1,2.7c0.1,0.2,0.3,0.3,0.4,0.3c0.2,0,0.3-0.1,0.4-0.3l0,0
		l5.1-6.5C17.1,10.5,17.1,10.4,17,10.3z"/>
	<path id="Pfad_17303" class="st0" d="M13,5.6c4.3,0,7.8,3.5,7.8,7.8s-3.5,7.8-7.8,7.8s-7.8-3.5-7.8-7.8c0-2.1,0.8-4,2.3-5.5
		C8.9,6.4,10.9,5.5,13,5.6 M13,4.3c-5,0-9,4-9,9s4,9,9,9s9-4,9-9S17.9,4.3,13,4.3z"/>
</g>
</svg>
