<svg xmlns="http://www.w3.org/2000/svg" width="132.718" height="34.582" viewBox="0 0 132.718 34.582">
  <g id="Group_13504" data-name="Group 13504" transform="translate(-120.999 -22)">
    <g id="Group_13502" data-name="Group 13502" transform="translate(53.018 -309.881)">
      <g id="Group_919" data-name="Group 919" transform="translate(67.982 331.881)">
        <path id="Path_909" data-name="Path 909" d="M68.325,347.458a4.912,4.912,0,0,1,3.192-2.936,5.492,5.492,0,0,1,1.254-.166c2.3-.006,5.146,0,7.443,0h.374v-.4c0-2.322,0-4.643,0-6.965a5.119,5.119,0,0,1,1.625-3.929,4.533,4.533,0,0,1,2.336-1.177c-.221.361-.421.665-.6.983a9.889,9.889,0,0,0-1.223,3.9,14.7,14.7,0,0,0,.777,5.8c.451,1.482,1.818,4.315,1.576,5.028-.132.388-.356.741-.514,1.12a6.181,6.181,0,0,0-.521,2.439,3.714,3.714,0,0,0,.38,1.722,4.643,4.643,0,0,1,.211,2.169,32.973,32.973,0,0,1-1.415,7.754c-.324.878-.738,1.721-1.136,2.639a4.949,4.949,0,0,1-1.147-1.755,5.419,5.419,0,0,1-.346-2q0-3.482,0-6.965v-.417H80.2c-2.273,0-5.1.007-7.371,0a4.823,4.823,0,0,1-4.619-3.5,4.7,4.7,0,0,1-.175-2.127c4.64,2.906,10.007,3.715,15.481,3.568a7.32,7.32,0,0,1,.361-3.367c.083-.258-.059-.431-.316-.384a4.375,4.375,0,0,0-.826.248C78.795,350.508,69.554,347.968,68.325,347.458Z" transform="translate(-67.982 -331.881)" fill="#a2cbf2"/>
        <g id="Group_917" data-name="Group 917" transform="translate(15.142 14.662)">
          <path id="Path_910" data-name="Path 910" d="M124.809,369.733a.58.58,0,0,0-.315-.361c-1.134-.5-5.535-2.427-14.392,3.32a.352.352,0,0,0-.165.246c-.19,1.4-.329,2.807-.558,4.2a32.151,32.151,0,0,1-2.044,7.686c-.527,1.091-1.15,2.132-1.74,3.214.031.017.107.065.189.1a4.461,4.461,0,0,0,2.551.393,4.835,4.835,0,0,0,4.078-4.883v-7.515h.425c2.236,0,5.162.01,7.4,0A4.887,4.887,0,0,0,124.809,369.733Zm-4.223,3.391s-1.84-.32-1.786-1.958c0,0,.051-1.583,2.238-1.314a1.5,1.5,0,0,1,.493.15,2.046,2.046,0,0,1,1.275,1.748S122.788,373.349,120.586,373.123Z" transform="translate(-105.595 -368.657)" fill="#fff"/>
        </g>
        <g id="Group_918" data-name="Group 918" transform="translate(15.819 0.077)">
          <path id="Path_911" data-name="Path 911" d="M121.491,344.53c-2.337-.038-5.364-.01-7.7-.01h-.372v-.431q0-3.556,0-7.112a4.718,4.718,0,0,0-.024-.533,4.834,4.834,0,0,0-4.343-4.368.429.429,0,0,0-.47.239,9.04,9.04,0,0,0-1.04,6.873,35.139,35.139,0,0,0,1.642,4.844c.619,1.6,1.635,4.382,1.693,4.716a66.74,66.74,0,0,1,6.954-2.262,13.635,13.635,0,0,1,5.959-.273l1.31.285A4.523,4.523,0,0,0,121.491,344.53Zm-10.43-6.715a1.287,1.287,0,0,1-.028.188c-.089.39-.49,1.748-1.77,1.761a1.066,1.066,0,0,1-.269-.032,1.521,1.521,0,0,1-1.1-1.54,2.755,2.755,0,0,1,.57-1.943,1.574,1.574,0,0,1,1.268-.665S111.232,335.6,111.061,337.816Z" transform="translate(-107.277 -332.073)" fill="#fff"/>
        </g>
      </g>
      <g id="Group_920" data-name="Group 920" transform="translate(111.588 339.878)">
        <path id="Path_912" data-name="Path 912" d="M187.6,371.921h-9.931V354.678H187.6v3h-6.275v3.786h5.838v3h-5.838V368.9H187.6Z" transform="translate(-177.669 -353.569)" fill="#fff"/>
        <path id="Path_913" data-name="Path 913" d="M215.666,370.873h-3.6V352.924h3.6Z" transform="translate(-198.22 -352.521)" fill="#fff"/>
        <path id="Path_914" data-name="Path 914" d="M231.5,353.681q0-1.757,1.958-1.757t1.958,1.757a1.713,1.713,0,0,1-.49,1.3,2.057,2.057,0,0,1-1.469.466Q231.5,355.451,231.5,353.681Zm3.75,16.595h-3.6V357.09h3.6Z" transform="translate(-209.828 -351.924)" fill="#fff"/>
        <path id="Path_915" data-name="Path 915" d="M255.268,371.146a7.789,7.789,0,0,0,2.265-.413v2.678a8.072,8.072,0,0,1-3.3.6,4.043,4.043,0,0,1-3.143-1.091,4.751,4.751,0,0,1-.985-3.273v-6.357H248.38V361.77l1.981-1.2,1.038-2.783h2.3v2.807h3.692v2.7H253.7v6.357a1.4,1.4,0,0,0,.43,1.132A1.7,1.7,0,0,0,255.268,371.146Z" transform="translate(-219.913 -355.424)" fill="#fff"/>
        <path id="Path_916" data-name="Path 916" d="M291.407,370.873h-3.6v-7.7q0-2.855-2.123-2.854a2.414,2.414,0,0,0-2.182,1.026,6.264,6.264,0,0,0-.672,3.326v6.2h-3.6V352.924h3.6v3.336q0,.437-.082,2.052l-.083,1.061h.188a4.168,4.168,0,0,1,3.822-1.934,4.672,4.672,0,0,1,3.526,1.25,4.965,4.965,0,0,1,1.2,3.585Z" transform="translate(-238.347 -352.521)" fill="#fff"/>
        <path id="Path_917" data-name="Path 917" d="M327.248,377.539l-.7-1.793h-.094a5.315,5.315,0,0,1-1.87,1.586,6.036,6.036,0,0,1-2.506.442,4.052,4.052,0,0,1-2.99-1.085A4.165,4.165,0,0,1,318,373.6a3.48,3.48,0,0,1,1.468-3.1,8.512,8.512,0,0,1,4.429-1.1l2.288-.071v-.578a1.793,1.793,0,0,0-2.052-2.005,9.349,9.349,0,0,0-3.715.955l-1.191-2.43a10.717,10.717,0,0,1,5.048-1.191,6.287,6.287,0,0,1,4.069,1.156,4.271,4.271,0,0,1,1.415,3.515v8.787Zm-1.062-6.11-1.392.047a4.458,4.458,0,0,0-2.335.566,1.778,1.778,0,0,0-.767,1.58q0,1.522,1.746,1.522a2.764,2.764,0,0,0,2-.72,2.527,2.527,0,0,0,.749-1.911Z" transform="translate(-261.506 -359.187)" fill="#fff"/>
        <path id="Path_918" data-name="Path 918" d="M357.528,353.681q0-1.757,1.958-1.757t1.958,1.757a1.713,1.713,0,0,1-.49,1.3,2.056,2.056,0,0,1-1.468.466Q357.528,355.451,357.528,353.681Zm3.751,16.595h-3.6V357.09h3.6Z" transform="translate(-285.12 -351.924)" fill="#fff"/>
        <path id="Path_919" data-name="Path 919" d="M385.08,364.141a5.829,5.829,0,0,1,1.215.106l-.271,3.373a4.129,4.129,0,0,0-1.062-.118,3.815,3.815,0,0,0-2.683.885,3.2,3.2,0,0,0-.961,2.477v6.711h-3.6V364.389h2.724l.531,2.217h.177a4.959,4.959,0,0,1,1.657-1.787A4.087,4.087,0,0,1,385.08,364.141Z" transform="translate(-297.184 -359.223)" fill="#fff"/>
      </g>
    </g>
  </g>
</svg>
