<svg id="Icon_ionic-ios-mail" data-name="Icon ionic-ios-mail" xmlns="http://www.w3.org/2000/svg" width="22.203" height="15.371" viewBox="0 0 22.203 15.371">
  <path id="Path_17300" data-name="Path 17300" d="M25.4,10.347,19.654,16.2a.1.1,0,0,0,0,.149l4.019,4.281a.693.693,0,0,1,0,.982.7.7,0,0,1-.982,0l-4-4.264a.11.11,0,0,0-.155,0l-.977.993a4.3,4.3,0,0,1-3.064,1.292A4.384,4.384,0,0,1,11.365,18.3l-.939-.955a.11.11,0,0,0-.155,0l-4,4.264a.7.7,0,0,1-.982,0,.693.693,0,0,1,0-.982L9.3,16.346a.114.114,0,0,0,0-.149l-5.748-5.85a.105.105,0,0,0-.181.075v11.7a1.713,1.713,0,0,0,1.708,1.708H23.87a1.713,1.713,0,0,0,1.708-1.708v-11.7A.107.107,0,0,0,25.4,10.347Z" transform="translate(-3.375 -8.463)" fill="#2569a8"/>
  <path id="Path_17301" data-name="Path 17301" d="M14.682,17.648a2.9,2.9,0,0,0,2.087-.875l8.374-8.524a1.677,1.677,0,0,0-1.057-.374H5.283a1.666,1.666,0,0,0-1.057.374L12.6,16.772A2.9,2.9,0,0,0,14.682,17.648Z" transform="translate(-3.58 -7.875)" fill="#2569a8"/>
</svg>
