<svg id="Group_13534" data-name="Group 13534" xmlns="http://www.w3.org/2000/svg" xmlns:xlink="http://www.w3.org/1999/xlink" width="31.893" height="31.893" viewBox="0 0 31.893 31.893">
  <defs>
    <clipPath id="clip-path">
      <rect id="Rectangle_2288" data-name="Rectangle 2288" width="31.893" height="31.893" fill="none"/>
    </clipPath>
  </defs>
  <g id="Group_13533" data-name="Group 13533" clip-path="url(#clip-path)">
    <path id="Path_17265" data-name="Path 17265" d="M15.947,31.893A15.946,15.946,0,0,1,4.671,4.671,15.947,15.947,0,0,1,27.223,27.222a15.841,15.841,0,0,1-11.276,4.671m0-31.043A15.1,15.1,0,0,0,5.272,26.621a15.1,15.1,0,0,0,21.35-21.35A15,15,0,0,0,15.947.85" fill="#757575"/>
    <path id="Path_17266" data-name="Path 17266" d="M76.544,179.3a1.482,1.482,0,0,0-.613.543c-.11.2-.1.349.04.425.171.094.321-.069.6-.356.4-.411.729-.627,1.2-.369.573.315.518.887.25,1.374a2.351,2.351,0,0,1-.906.906l-.368-.536a1.757,1.757,0,0,0,.753-.67c.115-.21.1-.347-.018-.413-.189-.1-.378.131-.676.421-.4.388-.692.509-1.073.3a.957.957,0,0,1-.309-1.384,2.1,2.1,0,0,1,.778-.758Z" transform="translate(-71.703 -170.346)" fill="#757575"/>
    <path id="Path_17267" data-name="Path 17267" d="M115.851,124.8a1.482,1.482,0,0,0-.727.378c-.155.167-.181.314-.065.422.143.133.328.011.668-.2.486-.3.86-.431,1.253-.067.479.445.287.986-.092,1.394a2.351,2.351,0,0,1-1.1.659l-.227-.609a1.757,1.757,0,0,0,.893-.467c.163-.176.184-.311.083-.405-.158-.146-.4.035-.758.244-.481.279-.795.326-1.113.03a.957.957,0,0,1,.036-1.417,2.1,2.1,0,0,1,.939-.546Z" transform="translate(-108.97 -118.354)" fill="#757575"/>
    <path id="Path_17268" data-name="Path 17268" d="M161.487,95.889,159.9,93.481l.556-.366,1.263,1.919,1.167-.768.321.488Z" transform="translate(-152.354 -88.72)" fill="#757575"/>
    <path id="Path_17269" data-name="Path 17269" d="M253.892,48.8a1.481,1.481,0,0,0-.814-.089c-.221.053-.325.161-.288.315.045.19.267.191.666.2.572.018.955.119,1.079.64.152.636-.309.979-.85,1.108a2.351,2.351,0,0,1-1.279-.062l.15-.632a1.757,1.757,0,0,0,1,.107c.233-.056.326-.157.294-.291-.05-.209-.35-.192-.766-.218-.555-.035-.842-.17-.943-.593a.957.957,0,0,1,.817-1.159,2.1,2.1,0,0,1,1.084.067Z" transform="translate(-240.213 -45.814)" fill="#757575"/>
    <path id="Path_17270" data-name="Path 17270" d="M323.037,43.51l-.009.584L321,44.062l.047-2.882,1.989.032-.009.584-1.323-.021-.009.56,1.136.018-.009.54-1.136-.018-.01.613Z" transform="translate(-305.85 -39.236)" fill="#757575"/>
    <path id="Path_17271" data-name="Path 17271" d="M382.912,50.909a1.174,1.174,0,0,1,.894.889l-.586.214a.611.611,0,0,0-.476-.534.769.769,0,0,0-.893.657.79.79,0,0,0,.454,1.024.611.611,0,0,0,.671-.233l.447.451a1.255,1.255,0,0,1-1.286.351,1.453,1.453,0,0,1-.936-1.79,1.4,1.4,0,0,1,1.71-1.028" transform="translate(-363.159 -48.459)" fill="#757575"/>
    <path id="Path_17272" data-name="Path 17272" d="M447.471,71.491l.755-1.266.572.341-.755,1.266a1.287,1.287,0,1,1-2.2-1.31l.755-1.266.572.341-.755,1.266c-.225.377-.291.8.1,1.036s.739-.042.957-.408" transform="translate(-424.545 -65.987)" fill="#757575"/>
    <path id="Path_17273" data-name="Path 17273" d="M494.339,119.768l2.1-1.975.89.946a.981.981,0,0,1-.065,1.354.95.95,0,0,1-.932.23L496,121.54l-.514-.547.28-1.06-.3-.316-.677.637Zm1.556-.549.417.444c.109.115.319.1.487-.063a.357.357,0,0,0,.073-.492l-.4-.429Z" transform="translate(-471.004 -112.234)" fill="#757575"/>
    <path id="Path_17274" data-name="Path 17274" d="M537.351,181.034l-.513.281-.973-1.777,2.528-1.384.955,1.745-.513.281-.635-1.161-.491.269.546,1-.474.259-.546-1-.538.294Z" transform="translate(-510.571 -169.744)" fill="#757575"/>
    <path id="Path_17275" data-name="Path 17275" d="M139.092,495.131l.482.385-.35.9.806-.535.479.382-1.213.746-.255.788,1.89-1.2.565.451-2.7,1.536-.438-.35.349-1.166-1.063.6-.435-.347.9-2.969.562.448-.751,2.112.706-.429Z" transform="translate(-130.737 -471.011)" fill="#757575"/>
    <path id="Path_17276" data-name="Path 17276" d="M216.585,554.6l-.209.546-1.893-.722,1.028-2.693,1.859.709-.208.546-1.237-.472-.2.524,1.062.405-.193.5-1.062-.405-.219.573Z" transform="translate(-204.36 -525.689)" fill="#757575"/>
    <path id="Path_17277" data-name="Path 17277" d="M282.116,572.947l-1.4-.163.335-2.863,1.593.186a.7.7,0,0,1,.567.81.761.761,0,0,0-.042,1.409c-.058.492-.525.682-1.058.62m.167-1.182-.762-.089-.073.625.734.086a.316.316,0,0,0,.1-.622m-.632-1.2-.069.593.649.076a.274.274,0,0,0,.313-.266.262.262,0,0,0-.22-.324Z" transform="translate(-267.47 -543.018)" fill="#757575"/>
    <path id="Path_17278" data-name="Path 17278" d="M351.788,572.226a1.483,1.483,0,0,0-.8-.174c-.225.029-.34.126-.319.283.025.193.245.218.642.272.567.078.937.217,1.007.749.085.648-.409.942-.961,1.014a2.351,2.351,0,0,1-1.266-.195l.215-.613a1.758,1.758,0,0,0,.986.211c.238-.031.34-.122.322-.259-.028-.213-.329-.227-.739-.3-.548-.092-.82-.257-.876-.688a.957.957,0,0,1,.933-1.068,2.1,2.1,0,0,1,1.072.179Z" transform="translate(-333.467 -544.474)" fill="#757575"/>
    <rect id="Rectangle_2287" data-name="Rectangle 2287" width="0.666" height="2.882" transform="translate(19.148 26.662) rotate(-18.123)" fill="#757575"/>
    <path id="Path_17279" data-name="Path 17279" d="M432.427,533.283l-.768.424,1.11,2.012-.583.322-1.11-2.012-.771.425-.282-.512,2.122-1.17Z" transform="translate(-409.724 -507.622)" fill="#757575"/>
    <path id="Path_17280" data-name="Path 17280" d="M485.981,499.506l.394.432-1.5,1.365-1.943-2.129,1.47-1.341.394.432-.978.892.378.414.84-.766.364.4-.84.766.413.453Z" transform="translate(-460.139 -474.333)" fill="#757575"/>
    <path id="Path_17281" data-name="Path 17281" d="M558.389,270.493l-.725-.443a12.19,12.19,0,0,0,1.284-9.76l.815-.239a13.041,13.041,0,0,1-1.375,10.443" transform="translate(-531.34 -247.775)" fill="#757575"/>
    <path id="Path_17282" data-name="Path 17282" d="M64.265,270.491a13.037,13.037,0,0,1-1.375-10.443l.815.24a12.188,12.188,0,0,0,1.285,9.76Z" transform="translate(-59.42 -247.773)" fill="#757575"/>
    <path id="Path_17283" data-name="Path 17283" d="M242.277,351.29a.276.276,0,0,0,.055-.005,19.44,19.44,0,0,1,2.555-.322V347.99a1.422,1.422,0,0,1,.1-.519h-3.1a.285.285,0,0,0-.285.3,18.511,18.511,0,0,0,.4,3.3.286.286,0,0,0,.278.223" transform="translate(-230.194 -331.069)" fill="#757575"/>
    <path id="Path_17284" data-name="Path 17284" d="M355.063,236.918v-1.923a2.6,2.6,0,0,0-2.595-2.6h-.729a2.6,2.6,0,0,0-2.595,2.6v1.923h1.3v-1.923a1.3,1.3,0,0,1,1.3-1.3h.729a1.3,1.3,0,0,1,1.3,1.3v1.923Z" transform="translate(-332.663 -221.429)" fill="#7cb342"/>
    <path id="Path_17285" data-name="Path 17285" d="M337.755,347.544h-6.639a.515.515,0,0,0-.515.515v5.122a.515.515,0,0,0,.515.515h6.639a.515.515,0,0,0,.515-.515v-5.122a.515.515,0,0,0-.515-.515m-2.784,3.048v1.523a.536.536,0,0,1-1.072,0v-1.523a.983.983,0,1,1,1.072,0" transform="translate(-314.995 -331.139)" fill="#7cb342"/>
    <path id="Path_17286" data-name="Path 17286" d="M472.966,226.372h1.974a.285.285,0,0,0,.284-.307,9.659,9.659,0,0,0-1.6-4.613.291.291,0,0,0-.371-.092,11.286,11.286,0,0,1-1.324.6,3.5,3.5,0,0,1,1.036,2.487v1.927Z" transform="translate(-449.653 -210.879)" fill="#757575"/>
    <path id="Path_17287" data-name="Path 17287" d="M396.349,279.228a.385.385,0,0,0-.385.385v1.927h1.5v-1.927a.385.385,0,0,0-.384-.385Z" transform="translate(-377.274 -266.047)" fill="#757575"/>
    <path id="Path_17288" data-name="Path 17288" d="M347.542,141.263a3.5,3.5,0,0,1,2.558-1.111h.474a6,6,0,0,0-2.755-3.59.284.284,0,0,0-.4.262v4.208a.286.286,0,0,0,.087.205.3.3,0,0,0,.031.025" transform="translate(-331.024 -130.095)" fill="#757575"/>
    <path id="Path_17289" data-name="Path 17289" d="M405.342,498.241a.286.286,0,0,0,.008.341.285.285,0,0,0,.33.088,9.7,9.7,0,0,0,2.466-1.444H405.96a8.826,8.826,0,0,1-.618,1.015" transform="translate(-386.158 -473.755)" fill="#757575"/>
    <path id="Path_17290" data-name="Path 17290" d="M511.546,347.471h-1.2a1.421,1.421,0,0,1,.1.519v4.048a9.647,9.647,0,0,0,1.383-4.26.285.285,0,0,0-.284-.307" transform="translate(-486.259 -331.069)" fill="#757575"/>
    <path id="Path_17291" data-name="Path 17291" d="M347.424,498.916a.285.285,0,0,0,.4.262,4.577,4.577,0,0,0,1.986-1.952h-2.381Z" transform="translate(-331.024 -473.755)" fill="#757575"/>
    <path id="Path_17292" data-name="Path 17292" d="M260.746,442.017v-1.236a18.806,18.806,0,0,0-2.27.275.285.285,0,0,0-.218.37c.675,2.033,1.729,3.481,2.891,3.972a.287.287,0,0,0,.111.022.284.284,0,0,0,.285-.285V443.3a1.43,1.43,0,0,1-.8-1.282" transform="translate(-246.054 -419.974)" fill="#757575"/>
    <path id="Path_17293" data-name="Path 17293" d="M406.75,150.79a.284.284,0,0,0,.352.186,12.682,12.682,0,0,0,1.952-.75.285.285,0,0,0,.083-.449,9.6,9.6,0,0,0-3.472-2.385.286.286,0,0,0-.33.087.284.284,0,0,0-.009.341,10.893,10.893,0,0,1,1.423,2.97" transform="translate(-386.143 -140.415)" fill="#757575"/>
    <path id="Path_17294" data-name="Path 17294" d="M245.411,249.932a19.2,19.2,0,0,1-3.1-.349.286.286,0,0,0-.334.22,18.744,18.744,0,0,0-.375,3.191.285.285,0,0,0,.285.3H245.4a.285.285,0,0,0,.285-.285v-2.787a.283.283,0,0,0-.275-.284" transform="translate(-230.195 -237.796)" fill="#757575"/>
    <path id="Path_17295" data-name="Path 17295" d="M134.188,226.373h3.6a.283.283,0,0,0,.284-.275,19.1,19.1,0,0,1,.413-3.439.286.286,0,0,0-.2-.334,12.514,12.514,0,0,1-2.418-.964.291.291,0,0,0-.371.093,9.656,9.656,0,0,0-1.6,4.613.285.285,0,0,0,.284.307" transform="translate(-127.582 -210.881)" fill="#757575"/>
    <path id="Path_17296" data-name="Path 17296" d="M260.7,136.587a.285.285,0,0,0-.268-.025c-1.175.494-2.242,1.98-2.927,4.077a.285.285,0,0,0,.216.368,17.759,17.759,0,0,0,2.811.312h.01a.285.285,0,0,0,.285-.285v-4.21a.283.283,0,0,0-.127-.237" transform="translate(-245.338 -130.094)" fill="#757575"/>
    <path id="Path_17297" data-name="Path 17297" d="M138.516,351.29a18.679,18.679,0,0,1-.439-3.543.283.283,0,0,0-.284-.276h-3.6a.285.285,0,0,0-.284.307,9.618,9.618,0,0,0,1.661,4.7.284.284,0,0,0,.368.09,12.358,12.358,0,0,1,2.384-.936.285.285,0,0,0,.2-.337" transform="translate(-127.582 -331.069)" fill="#757575"/>
    <path id="Path_17298" data-name="Path 17298" d="M186.942,150.23a11.517,11.517,0,0,0,1.961.758.283.283,0,0,0,.353-.186,10.862,10.862,0,0,1,1.422-2.976.283.283,0,0,0-.009-.341.288.288,0,0,0-.33-.087,9.788,9.788,0,0,0-3.475,2.384.285.285,0,0,0,.078.448" transform="translate(-177.97 -140.421)" fill="#757575"/>
    <path id="Path_17299" data-name="Path 17299" d="M190.722,453.9a.287.287,0,0,0-.351-.185,12.546,12.546,0,0,0-1.917.727.285.285,0,0,0-.082.452,9.679,9.679,0,0,0,3.4,2.307.285.285,0,0,0,.339-.428,10.718,10.718,0,0,1-1.391-2.873" transform="translate(-179.406 -432.29)" fill="#757575"/>
  </g>
</svg>
