<svg xmlns="http://www.w3.org/2000/svg" width="19.232" height="19.232" viewBox="0 0 19.232 19.232">
  <path id="Icon_material-call" data-name="Icon material-call" d="M8.368,12.823a16.186,16.186,0,0,0,7.041,7.041l2.351-2.351a1.062,1.062,0,0,1,1.09-.256,12.188,12.188,0,0,0,3.814.609,1.072,1.072,0,0,1,1.068,1.068v3.729a1.072,1.072,0,0,1-1.068,1.068A18.162,18.162,0,0,1,4.5,5.568,1.072,1.072,0,0,1,5.568,4.5h3.74a1.072,1.072,0,0,1,1.068,1.068,12.138,12.138,0,0,0,.609,3.814,1.072,1.072,0,0,1-.267,1.09L8.368,12.823Z" transform="translate(-4.5 -4.5)" fill="#2569a8"/>
</svg>
