<svg xmlns="http://www.w3.org/2000/svg" width="20" height="17.917" viewBox="0 0 20 17.917"><defs><style>.a{fill:#2b79c2;fill-rule:evenodd;}</style></defs><path class="a" d="M21.32,23.362A7.5,7.5,0,0,0,15.9,16.153a6.828,6.828,0,0,1-9.151,0,7.5,7.5,0,0,0-5.424,7.208h20ZM11.285,16.694h-.067A5.6,5.6,0,0,1,9.2,16.278l-.026-.01,0,0h0l-.007,0-.013-.006-.006,0,0,0-.007,0-.016-.006-.009,0-.006,0,0,0-.009,0a5.625,5.625,0,1,1,4.476,0l-.009,0,0,0-.006,0-.01,0-.016.006-.007,0,0,0-.006,0-.013.006-.007,0h0l0,0-.026.01a5.607,5.607,0,0,1-2.022.415h-.135Z" transform="translate(-1.321 -5.445)"/></svg>