<?xml version="1.0" encoding="utf-8"?>
<!-- Generator: Adobe Illustrator 26.0.1, SVG Export Plug-In . SVG Version: 6.00 Build 0)  -->
<svg version="1.1" id="Ebene_1" xmlns="http://www.w3.org/2000/svg" xmlns:xlink="http://www.w3.org/1999/xlink" x="0px" y="0px"
	 viewBox="0 0 58.7 46.3" style="enable-background:new 0 0 58.7 46.3;" xml:space="preserve">
<style type="text/css">
	.st0{fill-rule:evenodd;clip-rule:evenodd;fill:#225CA8;}
</style>
<path id="Rechteck_1_Kopie_2" class="st0" d="M47.9,22.6c-7.1,0-12.9,5.8-12.9,12.9c0,0.5,0,1.1,0.1,1.6H5.8c0,0-5.8-1.3-5.8-5.7
	V12.5C0,12.5,1.3,8,5.4,8s6.4-2.7,7-4s2.2-4.1,5-4.1h14.8c0,0,4.4,0.4,5.2,4.1c0.8,3.7,6.8,4,7.9,4c1.2,0,4.4,1.8,4.4,4.4v10.3
	C49.2,22.7,48.5,22.6,47.9,22.6z M25,11.1c-5.7,0-10.3,4.6-10.3,10.3S19.3,31.8,25,31.8s10.3-4.6,10.3-10.3S30.7,11.1,25,11.1z
	 M24.9,13.8c4.3,0,7.8,3.5,7.8,7.8s-3.5,7.8-7.8,7.8S17,25.9,17,21.6S20.5,13.8,24.9,13.8z M51.2,35.5l-2-2v7.4
	c0,0.8-0.6,1.4-1.4,1.4s-1.4-0.6-1.4-1.4v-7.5l-2.2,2.2c-0.5,0.5-1.4,0.5-2,0c0,0,0,0,0,0l0,0c-0.5-0.5-0.5-1.4,0-2l4.4-4.4
	c0.5-0.6,1.4-0.7,2-0.2c0.1,0.1,0.2,0.2,0.3,0.4l4.1,4.1c0.5,0.5,0.5,1.4,0,2C52.6,36,51.8,36,51.2,35.5z M47.8,24.6
	c6,0,10.9,4.9,10.9,10.9s-4.9,10.9-10.9,10.9S37,41.5,37,35.5l0,0C37,29.5,41.8,24.6,47.8,24.6z"/>
</svg>
